<mxfile host="Electron" modified="2024-08-30T07:48:55.816Z" agent="Mozilla/5.0 (Windows NT 10.0; Win64; x64) AppleWebKit/537.36 (KHTML, like Gecko) draw.io/24.4.13 Chrome/124.0.6367.207 Electron/30.0.6 Safari/537.36" etag="82G4OMOw_fJ4mCApC-_D" version="24.4.13" type="device">
  <diagram name="ページ1" id="wa8L-6vaIQd20nnBTCc6">
    <mxGraphModel dx="286" dy="654" grid="1" gridSize="10" guides="1" tooltips="1" connect="1" arrows="1" fold="1" page="1" pageScale="1" pageWidth="827" pageHeight="1169" math="0" shadow="0">
      <root>
        <mxCell id="0" />
        <mxCell id="1" parent="0" />
        <mxCell id="YYUqtAS5SdetE51XC7i2-1" value="" style="endArrow=classic;html=1;rounded=0;" parent="1" edge="1">
          <mxGeometry width="50" height="50" relative="1" as="geometry">
            <mxPoint x="40" y="400" as="sourcePoint" />
            <mxPoint x="120" y="400" as="targetPoint" />
          </mxGeometry>
        </mxCell>
        <mxCell id="YYUqtAS5SdetE51XC7i2-2" value="s_tick" style="edgeLabel;html=1;align=center;verticalAlign=middle;resizable=0;points=[];" parent="YYUqtAS5SdetE51XC7i2-1" vertex="1" connectable="0">
          <mxGeometry x="-0.055" relative="1" as="geometry">
            <mxPoint y="10" as="offset" />
          </mxGeometry>
        </mxCell>
        <mxCell id="YYUqtAS5SdetE51XC7i2-3" value="" style="endArrow=classic;html=1;rounded=0;" parent="1" edge="1">
          <mxGeometry width="50" height="50" relative="1" as="geometry">
            <mxPoint x="40" y="480" as="sourcePoint" />
            <mxPoint x="120" y="480" as="targetPoint" />
          </mxGeometry>
        </mxCell>
        <mxCell id="YYUqtAS5SdetE51XC7i2-4" value="s_temperature" style="edgeLabel;html=1;align=center;verticalAlign=middle;resizable=0;points=[];" parent="YYUqtAS5SdetE51XC7i2-3" vertex="1" connectable="0">
          <mxGeometry x="-0.1214" y="2" relative="1" as="geometry">
            <mxPoint x="5" y="12" as="offset" />
          </mxGeometry>
        </mxCell>
        <mxCell id="YYUqtAS5SdetE51XC7i2-5" value="" style="endArrow=diamond;html=1;rounded=0;endFill=0;" parent="1" edge="1">
          <mxGeometry width="50" height="50" relative="1" as="geometry">
            <mxPoint x="600" y="479.58" as="sourcePoint" />
            <mxPoint x="680" y="479.58" as="targetPoint" />
          </mxGeometry>
        </mxCell>
        <mxCell id="YYUqtAS5SdetE51XC7i2-6" value="c_targetTemp" style="edgeLabel;html=1;align=center;verticalAlign=middle;resizable=0;points=[];" parent="YYUqtAS5SdetE51XC7i2-5" vertex="1" connectable="0">
          <mxGeometry x="-0.0214" y="2" relative="1" as="geometry">
            <mxPoint y="12" as="offset" />
          </mxGeometry>
        </mxCell>
        <mxCell id="YYUqtAS5SdetE51XC7i2-7" value="Time.ms_passed&lt;div&gt;ms = 60000&lt;/div&gt;" style="shape=process;whiteSpace=wrap;html=1;backgroundOutline=1;" parent="1" vertex="1">
          <mxGeometry x="120" y="370" width="120" height="60" as="geometry" />
        </mxCell>
        <mxCell id="YYUqtAS5SdetE51XC7i2-10" value="" style="endArrow=classic;html=1;rounded=0;" parent="1" edge="1">
          <mxGeometry width="50" height="50" relative="1" as="geometry">
            <mxPoint x="240" y="399.71" as="sourcePoint" />
            <mxPoint x="400" y="400" as="targetPoint" />
          </mxGeometry>
        </mxCell>
        <mxCell id="YYUqtAS5SdetE51XC7i2-11" value="s_oneMinutesPassed" style="edgeLabel;html=1;align=center;verticalAlign=middle;resizable=0;points=[];" parent="YYUqtAS5SdetE51XC7i2-10" vertex="1" connectable="0">
          <mxGeometry x="0.2214" y="1" relative="1" as="geometry">
            <mxPoint x="-18" y="11" as="offset" />
          </mxGeometry>
        </mxCell>
        <mxCell id="YYUqtAS5SdetE51XC7i2-13" value="hold" style="rounded=1;whiteSpace=wrap;html=1;" parent="1" vertex="1">
          <mxGeometry x="120" y="460" width="80" height="40" as="geometry" />
        </mxCell>
        <mxCell id="YYUqtAS5SdetE51XC7i2-14" value="" style="endArrow=diamond;html=1;rounded=0;endFill=0;" parent="1" edge="1">
          <mxGeometry width="50" height="50" relative="1" as="geometry">
            <mxPoint x="200" y="480" as="sourcePoint" />
            <mxPoint x="420" y="420" as="targetPoint" />
            <Array as="points">
              <mxPoint x="420" y="480" />
            </Array>
          </mxGeometry>
        </mxCell>
        <mxCell id="YYUqtAS5SdetE51XC7i2-15" value="c_currTemp" style="edgeLabel;html=1;align=center;verticalAlign=middle;resizable=0;points=[];" parent="YYUqtAS5SdetE51XC7i2-14" vertex="1" connectable="0">
          <mxGeometry x="-0.244" y="-1" relative="1" as="geometry">
            <mxPoint x="-6" y="9" as="offset" />
          </mxGeometry>
        </mxCell>
        <mxCell id="YYUqtAS5SdetE51XC7i2-18" value="snapshot" style="shape=offPageConnector;whiteSpace=wrap;html=1;direction=north;" parent="1" vertex="1">
          <mxGeometry x="400" y="380" width="60" height="40" as="geometry" />
        </mxCell>
        <mxCell id="YYUqtAS5SdetE51XC7i2-19" value="" style="endArrow=classic;html=1;rounded=0;" parent="1" edge="1">
          <mxGeometry width="50" height="50" relative="1" as="geometry">
            <mxPoint x="460" y="399.66" as="sourcePoint" />
            <mxPoint x="520" y="400" as="targetPoint" />
          </mxGeometry>
        </mxCell>
        <mxCell id="YYUqtAS5SdetE51XC7i2-20" value="hold" style="rounded=1;whiteSpace=wrap;html=1;" parent="1" vertex="1">
          <mxGeometry x="520" y="380" width="80" height="40" as="geometry" />
        </mxCell>
        <mxCell id="YYUqtAS5SdetE51XC7i2-21" value="" style="endArrow=diamond;html=1;rounded=0;endFill=0;" parent="1" edge="1">
          <mxGeometry width="50" height="50" relative="1" as="geometry">
            <mxPoint x="600" y="399.58" as="sourcePoint" />
            <mxPoint x="680" y="399.58" as="targetPoint" />
          </mxGeometry>
        </mxCell>
        <mxCell id="YYUqtAS5SdetE51XC7i2-22" value="c_prevTemp" style="edgeLabel;html=1;align=center;verticalAlign=middle;resizable=0;points=[];" parent="YYUqtAS5SdetE51XC7i2-21" vertex="1" connectable="0">
          <mxGeometry x="-0.1167" y="-2" relative="1" as="geometry">
            <mxPoint x="5" y="8" as="offset" />
          </mxGeometry>
        </mxCell>
        <mxCell id="YYUqtAS5SdetE51XC7i2-23" value="" style="endArrow=diamond;html=1;rounded=0;endFill=0;" parent="1" edge="1">
          <mxGeometry width="50" height="50" relative="1" as="geometry">
            <mxPoint x="420" y="480" as="sourcePoint" />
            <mxPoint x="680" y="440" as="targetPoint" />
            <Array as="points">
              <mxPoint x="480" y="480" />
              <mxPoint x="480" y="440" />
            </Array>
          </mxGeometry>
        </mxCell>
        <mxCell id="YYUqtAS5SdetE51XC7i2-24" value="lift" style="shape=trapezoid;perimeter=trapezoidPerimeter;whiteSpace=wrap;html=1;fixedSize=1;direction=south;" parent="1" vertex="1">
          <mxGeometry x="680" y="380" width="40" height="120" as="geometry" />
        </mxCell>
        <mxCell id="YYUqtAS5SdetE51XC7i2-25" value="" style="endArrow=diamond;html=1;rounded=0;endFill=0;" parent="1" edge="1">
          <mxGeometry width="50" height="50" relative="1" as="geometry">
            <mxPoint x="720" y="439.58" as="sourcePoint" />
            <mxPoint x="880" y="380" as="targetPoint" />
            <Array as="points">
              <mxPoint x="880" y="440" />
            </Array>
          </mxGeometry>
        </mxCell>
        <mxCell id="YYUqtAS5SdetE51XC7i2-26" value="c_isTemperatureNotIncreased" style="edgeLabel;html=1;align=center;verticalAlign=middle;resizable=0;points=[];" parent="YYUqtAS5SdetE51XC7i2-25" vertex="1" connectable="0">
          <mxGeometry x="-0.075" y="-4" relative="1" as="geometry">
            <mxPoint x="-22" y="6" as="offset" />
          </mxGeometry>
        </mxCell>
        <mxCell id="YYUqtAS5SdetE51XC7i2-27" value="" style="endArrow=classic;html=1;rounded=0;" parent="1" edge="1">
          <mxGeometry width="50" height="50" relative="1" as="geometry">
            <mxPoint x="360" y="400" as="sourcePoint" />
            <mxPoint x="860" y="360" as="targetPoint" />
            <Array as="points">
              <mxPoint x="360" y="360" />
            </Array>
          </mxGeometry>
        </mxCell>
        <mxCell id="YYUqtAS5SdetE51XC7i2-28" value="gate" style="shape=offPageConnector;whiteSpace=wrap;html=1;direction=north;" parent="1" vertex="1">
          <mxGeometry x="860" y="340" width="60" height="40" as="geometry" />
        </mxCell>
        <mxCell id="YYUqtAS5SdetE51XC7i2-29" value="" style="endArrow=classic;html=1;rounded=0;" parent="1" edge="1">
          <mxGeometry width="50" height="50" relative="1" as="geometry">
            <mxPoint x="920" y="360" as="sourcePoint" />
            <mxPoint x="1000" y="359.58" as="targetPoint" />
          </mxGeometry>
        </mxCell>
      </root>
    </mxGraphModel>
  </diagram>
</mxfile>
